<?xml version="1.0" standalone="no"?>
<!DOCTYPE svg PUBLIC "-//W3C//DTD SVG 20010904//EN"
 "http://www.w3.org/TR/2001/REC-SVG-20010904/DTD/svg10.dtd">
<svg version="1.0" xmlns="http://www.w3.org/2000/svg"
 width="365.000000pt" height="432.000000pt" viewBox="0 0 365.000000 432.000000"
 preserveAspectRatio="xMidYMid meet">

<g transform="translate(0.000000,432.000000) scale(0.100000,-0.100000)"
fill="white" stroke="none">
<path d="M1017 3603 c-4 -3 -7 -55 -7 -115 l0 -108 -115 0 -115 0 0 -580 0
-580 115 0 114 0 3 -117 3 -118 118 -3 117 -3 0 -344 0 -345 115 0 115 0 0
345 0 345 115 0 115 0 0 -345 0 -345 120 0 120 0 0 345 0 345 115 0 115 0 0
-345 0 -345 115 0 115 0 0 345 0 345 115 0 114 0 3 118 3 117 113 3 112 3 0
579 0 580 -115 0 -115 0 0 115 0 115 -808 0 c-445 0 -812 -3 -815 -7z m463
-923 l0 -230 -235 0 -235 0 0 230 0 230 235 0 235 0 0 -230z m1160 0 l0 -230
-230 0 -230 0 0 230 0 230 230 0 230 0 0 -230z m-699 -234 c2 -2 3 -56 1 -120
l-3 -116 -115 0 -114 0 0 120 0 120 113 0 c63 0 116 -2 118 -4z"/>
<path d="M562 790 c-18 -29 -16 -187 2 -206 11 -10 42 -14 120 -14 l106 0 0
70 0 70 -60 0 c-53 0 -60 -2 -60 -20 0 -11 5 -20 10 -20 6 0 10 -11 10 -25 0
-18 -5 -25 -20 -25 -18 0 -20 7 -20 70 l0 70 70 0 c68 0 70 1 70 25 l0 25
-108 0 c-96 0 -108 -2 -120 -20z"/>
<path d="M860 795 c0 -8 -4 -15 -10 -15 -6 0 -10 -42 -10 -105 l0 -105 50 0
50 0 0 50 c0 43 3 50 20 50 17 0 20 -7 20 -50 l0 -50 50 0 50 0 0 105 c0 63
-4 105 -10 105 -5 0 -10 7 -10 15 0 12 -18 15 -100 15 -82 0 -100 -3 -100 -15z
m120 -60 c0 -18 -5 -25 -20 -25 -15 0 -20 7 -20 25 0 18 5 25 20 25 15 0 20
-7 20 -25z"/>
<path d="M1130 690 l0 -120 44 0 c52 0 54 5 52 114 -1 73 0 76 22 76 21 0 22
-3 22 -95 l0 -95 50 0 50 0 0 95 c0 95 0 95 25 95 25 0 25 0 25 -95 l0 -95 45
0 45 0 0 106 c0 78 -4 109 -14 120 -12 11 -51 14 -190 14 l-176 0 0 -120z"/>
<path d="M1578 791 c-25 -24 -27 -201 -3 -201 8 0 15 -4 15 -10 0 -6 42 -10
105 -10 l105 0 0 25 c0 24 -2 25 -70 25 -68 0 -70 1 -70 25 0 22 4 25 35 25
28 0 35 4 35 20 0 16 -7 20 -35 20 -31 0 -35 3 -35 25 0 24 2 25 70 25 68 0
70 1 70 25 l0 25 -102 -1 c-85 0 -106 -3 -120 -18z"/>
<path d="M2013 795 c-19 -21 -17 -192 1 -211 17 -17 196 -21 196 -4 0 6 7 10
15 10 12 0 15 17 15 90 0 122 -8 130 -127 130 -63 -1 -92 -5 -100 -15z m127
-105 c0 -68 -1 -70 -25 -70 -24 0 -25 2 -25 70 0 68 1 70 25 70 24 0 25 -2 25
-70z"/>
<path d="M2290 690 l0 -120 105 0 c63 0 105 4 105 10 0 6 7 10 15 10 12 0 15
19 15 110 l0 110 -50 0 -50 0 0 -95 c0 -95 0 -95 -25 -95 -25 0 -25 0 -25 95
l0 95 -45 0 -45 0 0 -120z"/>
<path d="M2593 795 c-19 -21 -17 -192 1 -211 11 -10 42 -14 121 -14 105 0 106
0 103 23 -3 20 -9 22 -76 25 -69 3 -73 4 -70 25 2 17 11 23 36 25 24 2 32 8
32 23 0 15 -7 19 -35 19 -31 0 -35 3 -35 25 0 24 2 25 75 25 73 0 75 1 75 25
l0 25 -107 0 c-80 -1 -111 -4 -120 -15z"/>
<path d="M2868 690 l-3 -120 47 0 47 0 3 48 c3 39 6 47 23 47 17 0 20 -8 23
-47 l3 -48 50 0 49 0 0 45 c0 31 -5 47 -15 51 -8 4 -15 14 -15 24 0 10 7 20
15 24 21 8 19 52 -5 76 -17 17 -33 20 -119 20 l-100 0 -3 -120z m142 45 c0
-20 -5 -25 -25 -25 -20 0 -25 5 -25 25 0 20 5 25 25 25 20 0 25 -5 25 -25z"/>
</g>
</svg>
